<svg width="23" height="18" viewBox="0 0 23 18" fill="none" xmlns="http://www.w3.org/2000/svg">
<path fill-rule="evenodd" clip-rule="evenodd" d="M22.1842 2.20497C21.3703 2.56015 20.5001 2.80001 19.5832 2.91072C20.5189 2.35719 21.2393 1.48078 21.5761 0.438315C20.7013 0.950323 19.7329 1.32395 18.6991 1.5223C17.8711 0.650498 16.6922 0.106201 15.3917 0.106201C12.889 0.106201 10.8634 2.10811 10.8634 4.5759C10.8634 4.92646 10.9008 5.2678 10.9803 5.5953C7.21448 5.41079 3.87435 3.6303 1.64292 0.922647C1.25464 1.58226 1.0301 2.35258 1.0301 3.16903C1.0301 4.71889 1.83472 6.08886 3.05101 6.89147C2.30253 6.87301 1.60082 6.67006 0.992672 6.33333C0.992672 6.35178 0.992672 6.37023 0.992672 6.38868C0.992672 8.55665 2.55514 10.3602 4.62752 10.7707C4.2486 10.8722 3.84628 10.9276 3.43461 10.9276C3.14458 10.9276 2.85921 10.8999 2.58321 10.8445C3.15861 12.6204 4.83335 13.912 6.81685 13.9489C5.26841 15.1482 3.31299 15.8631 1.18915 15.8631C0.824262 15.8631 0.464052 15.8401 0.108521 15.7986C2.10605 17.0809 4.48718 17.8189 7.04139 17.8189C15.3824 17.8189 19.9388 11.006 19.9388 5.09713C19.9388 4.9034 19.9341 4.70966 19.9247 4.52054C20.8089 3.88861 21.5761 3.10445 22.1842 2.20497Z" fill="white"/>
</svg>
