<svg width="61" height="61" viewBox="0 0 61 61" fill="none" xmlns="http://www.w3.org/2000/svg">
<path d="M26.8146 7.625C17.0241 7.64279 11.895 7.88425 8.61883 11.1579C5.08337 14.6985 5.08337 20.3892 5.08337 31.7708C5.08337 43.1524 5.08337 48.8432 8.61883 52.3812C12.1568 55.9167 17.8451 55.9167 29.2318 55.9167C40.6133 55.9167 46.3041 55.9167 49.8396 52.3812C53.1183 49.1025 53.3573 43.9759 53.375 34.1829" stroke="white" stroke-width="1.5" stroke-linecap="round" stroke-linejoin="round"/>
<path d="M28.1008 33.0417C26.2606 9.82614 42.7052 3.24322 55.8659 5.50022C56.3971 13.1938 52.6304 16.0736 45.4629 17.4054C46.8481 18.8541 49.2932 20.674 49.0288 22.9462C48.8408 24.5678 47.7428 25.3608 45.5417 26.9519C40.7227 30.434 35.1412 32.63 28.1008 33.0417Z" stroke="white" stroke-width="1.5" stroke-linecap="round" stroke-linejoin="round"/>
<path d="M22.875 43.2084C27.9583 29.2292 32.94 24.4915 38.125 20.3334" stroke="white" stroke-width="1.5" stroke-linecap="round" stroke-linejoin="round"/>
</svg>
