<svg width="61" height="61" viewBox="0 0 61 61" fill="none" xmlns="http://www.w3.org/2000/svg">
<path d="M15.25 20.3333H25.4167" stroke="white" stroke-width="1.5" stroke-linecap="round" stroke-linejoin="round"/>
<path d="M55.9167 26.6875C55.9167 26.4918 55.9167 25.3328 55.9116 25.2515C55.8201 23.9781 54.7297 22.964 53.3572 22.8801C53.2708 22.875 53.1666 22.875 52.9531 22.875H46.3397C41.8003 22.875 38.125 26.2885 38.125 30.5C38.125 34.7115 41.8028 38.125 46.3346 38.125H52.9505C53.164 38.125 53.2682 38.125 53.3572 38.1199C54.7297 38.036 55.8226 37.0219 55.9116 35.7485C55.9167 35.6672 55.9167 34.5082 55.9167 34.3125" stroke="white" stroke-width="1.5" stroke-linecap="round"/>
<path d="M45.75 33.0416C47.1538 33.0416 48.2917 31.9036 48.2917 30.4999C48.2917 29.0962 47.1538 27.9583 45.75 27.9583C44.3463 27.9583 43.2084 29.0962 43.2084 30.4999C43.2084 31.9036 44.3463 33.0416 45.75 33.0416Z" fill="white"/>
<path d="M33.0417 10.1666C42.6263 10.1666 47.4199 10.1666 50.3962 13.1455C52.4524 15.1991 53.0904 18.117 53.2861 22.875M25.4167 50.8333H33.0417C42.6263 50.8333 47.4199 50.8333 50.3962 47.8545C52.4524 45.8008 53.0904 42.883 53.2861 38.125M22.875 10.1666C14.9603 10.192 10.764 10.4411 8.06221 13.1455C5.08337 16.1218 5.08337 20.9153 5.08337 30.5C5.08337 40.0846 5.08337 44.8782 8.06221 47.8545C9.72192 49.5167 11.9459 50.2513 15.25 50.574" stroke="white" stroke-width="1.5" stroke-linecap="round"/>
</svg>
