<svg width="16" height="17" viewBox="0 0 16 17" fill="none" xmlns="http://www.w3.org/2000/svg">
<path d="M12.998 6.23347L7.99995 11.1055L3.00195 6.23347C2.91266 6.14624 2.79278 6.0974 2.66795 6.0974C2.54312 6.0974 2.42325 6.14624 2.33395 6.23347C2.29072 6.27583 2.25637 6.3264 2.23292 6.38221C2.20947 6.43801 2.19739 6.49794 2.19739 6.55847C2.19739 6.619 2.20947 6.67893 2.23292 6.73473C2.25637 6.79054 2.29072 6.84111 2.33395 6.88347L7.65095 12.0675C7.74433 12.1585 7.86956 12.2094 7.99995 12.2094C8.13035 12.2094 8.25558 12.1585 8.34895 12.0675L13.666 6.88447C13.7095 6.84207 13.7441 6.79138 13.7677 6.73539C13.7914 6.6794 13.8035 6.61924 13.8035 6.55847C13.8035 6.4977 13.7914 6.43754 13.7677 6.38155C13.7441 6.32556 13.7095 6.27487 13.666 6.23247C13.5767 6.14524 13.4568 6.09641 13.332 6.09641C13.2071 6.09641 13.0872 6.14524 12.998 6.23247V6.23347Z" fill="black"/>
</svg>
