<svg width="21" height="20" viewBox="0 0 21 20" fill="none" xmlns="http://www.w3.org/2000/svg">
<path fill-rule="evenodd" clip-rule="evenodd" d="M18.5196 -0.000732422H1.93787C1.03218 -0.000732422 0.240356 0.653286 0.240356 1.55126V18.2184C0.240356 19.1215 1.03218 19.9261 1.93787 19.9261H18.5145C19.4253 19.9261 20.1085 19.1163 20.1085 18.2184V1.55126C20.1136 0.653286 19.4253 -0.000732422 18.5196 -0.000732422ZM6.39937 16.6092H3.55293V7.73328H6.39937V16.6092ZM5.07448 6.3837H5.05378C4.14292 6.3837 3.55293 5.70373 3.55293 4.85246C3.55293 3.98563 4.15844 3.32123 5.09001 3.32123C6.02157 3.32123 6.59085 3.98044 6.61156 4.85246C6.61156 5.70373 6.02157 6.3837 5.07448 6.3837ZM16.8017 16.6092H13.9553V11.756C13.9553 10.5933 13.5412 9.79913 12.5113 9.79913C11.7247 9.79913 11.2589 10.3338 11.0519 10.8528C10.9743 11.0397 10.9536 11.294 10.9536 11.5536V16.6092H8.10713V7.73326H10.9536V8.96863C11.3676 8.3769 12.0145 7.52563 13.5205 7.52563C15.3888 7.52563 16.8017 8.761 16.8017 11.4238V16.6092Z" fill="white"/>
</svg>
