<svg width="61" height="61" viewBox="0 0 61 61" fill="none" xmlns="http://www.w3.org/2000/svg">
<path d="M18.0737 33.2196L11.1134 29.2851C10.9837 29.212 10.8763 29.105 10.8026 28.9755C10.729 28.8461 10.6919 28.6991 10.6953 28.5502C10.6987 28.4013 10.7424 28.2562 10.8219 28.1302C10.9014 28.0043 11.0135 27.9023 11.1464 27.8351L40.7721 12.8291L35.6633 42.5831C35.6386 42.7275 35.5788 42.8636 35.4893 42.9796C35.3998 43.0955 35.2833 43.1878 35.1499 43.2484C35.0165 43.3089 34.8704 43.3359 34.7242 43.3269C34.578 43.3179 34.4362 43.2733 34.3112 43.1969L23.959 36.8745L19.1781 42.8665C19.079 42.9903 18.9435 43.0798 18.7907 43.1225C18.638 43.1652 18.4757 43.1589 18.3268 43.1044C18.1778 43.0499 18.0497 42.9501 17.9606 42.8189C17.8714 42.6878 17.8256 42.532 17.8297 42.3734L18.0737 33.2196Z" stroke="white" stroke-width="1.5" stroke-linecap="round" stroke-linejoin="round"/>
<path d="M18.0737 33.2196L40.7721 12.8291L23.959 36.8745M49.354 51.7611V42.6683M44.807 47.2153H53.8998M49.354 57.823C58.3325 54.3726 57.8178 47.4606 57.8178 43.3355V40.2092C55.0743 39.3485 52.2275 38.8612 49.354 38.7605C46.4805 38.8612 43.6337 39.3485 40.8903 40.2092V43.3355C40.8903 47.4606 40.3756 54.3726 49.354 57.823Z" stroke="white" stroke-width="1.5" stroke-linecap="round" stroke-linejoin="round"/>
<path d="M43.8946 54.3206C38.6739 57.2574 32.6329 58.3976 26.7009 57.5656C20.7689 56.7336 15.2747 53.9756 11.0634 49.7159C6.85205 45.4561 4.15704 39.9307 3.39295 33.9896C2.62886 28.0485 3.83802 22.0209 6.8344 16.8341C9.83079 11.6474 14.4484 7.58889 19.9768 5.28298C25.5052 2.97706 31.6381 2.55151 37.432 4.07179C43.2259 5.59207 48.3598 8.97395 52.0438 13.6971C55.7278 18.4203 57.7579 24.2232 57.8216 30.2128M57.8229 30.4314C57.8335 33.6097 57.2895 36.7655 56.2153 39.7568" stroke="white" stroke-width="1.5" stroke-linecap="round" stroke-linejoin="round"/>
</svg>
